PathFileType	4	(X/Y/Z)	SUBJ36_2_walk_RCNL2025.trc
DataRate	CameraRate	NumFrames	NumMarkers	Units	OrigDataRate	OrigDataStartFrame	OrigNumFrames
100	100	4	25	mm	100	1	399
Frame#	Time	R_Shoulder			L_Shoulder			C7			J_Notch			R_Elbow			L_Elbow			R_Wrist			L_Wrist			R_Asis			L_Asis			Sacral			Thoracic			Sternum			R_Thigh_Lateral			R_Knee_Lateral			R_Shank_Lateral			R_Ankle_Lateral			R_Heel			R_Toe			L_Thigh_Lateral			L_Knee_Lateral			L_Shank_Lateral			L_Ankle_Lateral			L_Heel			L_Toe		
		X1	Y1	Z1	X2	Y2	Z2	X3	Y3	Z3	X4	Y4	Z4	X5	Y5	Z5	X6	Y6	Z6	X7	Y7	Z7	X8	Y8	Z8	X9	Y9	Z9	X10	Y10	Z10	X11	Y11	Z11	X12	Y12	Z12	X13	Y13	Z13	X14	Y14	Z14	X15	Y15	Z15	X16	Y16	Z16	X17	Y17	Z17	X18	Y18	Z18	X19	Y19	Z19	X20	Y20	Z20	X21	Y21	Z21	X22	Y22	Z22	X23	Y23	Z23	X24	Y24	Z24	X25	Y25	Z25
1	0.00000000	-1558.223389	1353.221436	-269.102936	-1595.937256	1300.777710	-611.174133	-1648.572144	1390.660278	-423.605347	-1509.722046	1286.384521	-434.548737	-1632.326172	1027.254761	-173.276520	-1683.837280	991.776672	-641.531372	-1520.126648	811.239624	-160.737190	-1632.836731	765.770264	-660.410797	-1522.133789	896.700500	-286.005798	-1517.334717	896.471802	-511.880829	-1738.175781	884.836792	-400.780426	-1729.396851	1133.047974	-401.313568	-1557.280762	1102.313843	-458.596649	-1724.331421	507.439484	-246.754349	-1722.970337	460.806213	-297.623688	-1882.238647	273.416718	-268.090363	-1940.856079	146.898911	-340.808136	NaN	NaN	NaN	-1875.415283	42.893333	-379.655945	-1473.858032	515.610718	-581.215332	-1445.219849	448.389557	-508.932343	-1446.554443	236.715439	-531.034180	-1434.260132	74.221771	-454.385468	-1457.092041	40.440075	-390.530792	-1303.272461	54.755577	-453.417206
2	0.01000000	-1552.619019	1353.987427	-269.840851	-1590.379395	1301.025146	-611.784241	-1643.208862	1391.042969	-424.354431	-1504.345703	1286.826782	-435.168701	-1627.613037	1028.283081	-173.544830	-1678.120850	991.999023	-641.961121	-1516.911682	811.601471	-160.355873	-1627.124390	766.003845	-660.799530	-1517.246460	896.796204	-286.284668	-1511.703491	897.465576	-511.928009	-1732.617798	885.205750	-400.817841	-1723.892944	1133.412109	-401.586212	-1551.531128	1102.817139	-458.572815	-1716.947266	506.464722	-246.375122	-1715.370605	460.038818	-297.051270	-1874.665161	275.677917	-266.876953	-1936.766113	149.106827	-340.374207	NaN	NaN	NaN	-1874.434448	42.895119	-379.627869	-1468.898315	515.907898	-581.614563	-1441.019409	448.404602	-509.226471	-1444.546631	236.533966	-531.129700	-1433.699951	74.243004	-454.362793	-1456.814331	40.574501	-390.530975	-1302.798096	54.339642	-453.273590
3	0.02000000	-1545.210327	1354.994141	-270.784546	-1582.996826	1301.359253	-612.556702	-1636.092529	1391.548706	-425.314789	-1497.208496	1287.402954	-435.933655	-1621.433472	1029.629883	-173.871307	-1670.516846	992.295227	-642.522461	-1512.672668	812.096741	-159.820885	-1619.454834	766.323273	-661.289703	-1510.844238	896.875549	-286.695923	-1504.285034	898.700745	-512.049805	-1725.305664	885.655212	-400.921173	-1716.614624	1133.907227	-401.948486	-1543.373291	1103.501953	-458.226349	-1707.120728	505.157501	-245.905930	-1705.177368	458.919281	-296.276062	-1864.671509	278.592773	-265.351471	-1931.101074	152.127777	-339.745239	-1979.676758	159.408966	-380.746002	-1872.859375	43.134708	-379.520782	-1462.753418	516.121094	-582.093506	-1435.749268	448.363159	-509.595428	-1442.051025	236.331863	-531.223877	-1433.002686	74.267792	-454.331726	-1456.477783	40.746651	-390.532135	-1302.213379	53.835766	-453.089050
4	0.03000000	-1536.171021	1356.210449	-271.890930	-1573.933716	1301.774780	-613.454895	-1627.365845	1392.167480	-426.447723	-1488.452881	1288.095337	-436.794556	-1613.951416	1031.255493	-174.232330	-1661.167358	992.657593	-643.197876	-1507.512329	812.720642	-159.127991	-1609.932007	766.725403	-661.854828	-1503.088745	896.919617	-287.249023	-1495.260254	900.107056	-512.276001	-1716.422485	886.159607	-401.117432	-1707.724609	1134.530640	-402.396759	-1532.675415	1104.361572	-457.389618	-1695.019897	503.544769	-245.371246	-1692.547363	457.419342	-295.305908	-1852.469360	282.058929	-263.587036	-1923.837280	155.948242	-338.912384	-1973.690552	162.942352	-379.501770	-1870.533936	43.739929	-379.291382	-1455.760132	516.164612	-582.622498	-1429.666016	448.238739	-510.024445	-1439.197144	236.132462	-531.304321	-1432.206421	74.294121	-454.293793	-1456.105103	40.950623	-390.535675	-1301.553101	53.278584	-452.872711
